<?xml version="1.0" encoding="UTF-8"?>
<svg width="40px" height="32px" viewBox="0 0 40 32" version="1.1" xmlns="http://www.w3.org/2000/svg" xmlns:xlink="http://www.w3.org/1999/xlink">
    <!-- Generator: sketchtool 50.2 (55047) - http://www.bohemiancoding.com/sketch -->
    <title>DD541B5C-4EBB-41A0-9133-00A27648DCE0</title>
    <desc>Created with sketchtool.</desc>
    <defs>
        <rect id="path-1" x="0" y="0" width="1440" height="920"></rect>
        <rect id="path-3" x="0" y="0" width="1257" height="420" rx="10"></rect>
        <filter x="-4.5%" y="-11.0%" width="108.9%" height="126.7%" filterUnits="objectBoundingBox" id="filter-4">
            <feOffset dx="0" dy="10" in="SourceAlpha" result="shadowOffsetOuter1"></feOffset>
            <feGaussianBlur stdDeviation="17" in="shadowOffsetOuter1" result="shadowBlurOuter1"></feGaussianBlur>
            <feColorMatrix values="0 0 0 0 0.823554422   0 0 0 0 0.823554422   0 0 0 0 0.823554422  0 0 0 0.5 0" type="matrix" in="shadowBlurOuter1"></feColorMatrix>
        </filter>
    </defs>
    <g id="Page-1" stroke="none" stroke-width="1" fill="none" fill-rule="evenodd">
        <g id="Desktop-HD" transform="translate(-587.000000, -896.000000)">
            <g id="Header">
                <g id="Artboard">
                    <mask id="mask-2" fill="white">
                        <use xlink:href="#path-1"></use>
                    </mask>
                    <use id="Mask" fill="#313A5A" xlink:href="#path-1"></use>
                </g>
            </g>
            <g id="Benefit" transform="translate(92.000000, 810.000000)">
                <g id="Rectangle">
                    <use fill="black" fill-opacity="1" filter="url(#filter-4)" xlink:href="#path-3"></use>
                    <use fill="#FFFFFF" fill-rule="evenodd" xlink:href="#path-3"></use>
                </g>
                <rect id="Rectangle-Copy" fill="#1FDB84" opacity="0.100000001" x="479" y="66" width="72" height="72" rx="6"></rect>
                <path d="M532.6,86.8 L497.4,86.8 C496.075101,86.801411 495.001411,87.8751015 495,89.2 L495,114.8 C495.001411,116.124899 496.075101,117.198589 497.4,117.2 L501.4,117.2 L505.48,111.76 C505.933251,111.155666 506.644582,110.8 507.4,110.8 L522.6,110.8 C523.355418,110.8 524.066749,111.155666 524.52,111.76 L528.6,117.2 L532.6,117.2 C533.924899,117.198589 534.998589,116.124899 535,114.8 L535,89.2 C534.998589,87.8751015 533.924899,86.801411 532.6,86.8 Z M502.2,107.6 L499,107.6 C498.558172,107.6 498.2,107.241828 498.2,106.8 C498.2,106.358172 498.558172,106 499,106 L502.2,106 C502.641828,106 503,106.358172 503,106.8 C503,107.241828 502.641828,107.6 502.2,107.6 Z M502.2,101.2 L499,101.2 C498.558172,101.2 498.2,100.841828 498.2,100.4 C498.2,99.9581722 498.558172,99.6 499,99.6 L502.2,99.6 C502.641828,99.6 503,99.9581722 503,100.4 C503,100.841828 502.641828,101.2 502.2,101.2 Z M502.2,94.8 L499,94.8 C498.558172,94.8 498.2,94.4418278 498.2,94 C498.2,93.5581722 498.558172,93.2 499,93.2 L502.2,93.2 C502.641828,93.2 503,93.5581722 503,94 C503,94.4418278 502.641828,94.8 502.2,94.8 Z M523.8,106 C523.8,106.883656 523.083656,107.6 522.2,107.6 L507.8,107.6 C506.916344,107.6 506.2,106.883656 506.2,106 L506.2,94.8 C506.2,93.9163444 506.916344,93.2 507.8,93.2 L522.2,93.2 C523.083656,93.2 523.8,93.9163444 523.8,94.8 L523.8,106 Z M531,107.6 L527.8,107.6 C527.358172,107.6 527,107.241828 527,106.8 C527,106.358172 527.358172,106 527.8,106 L531,106 C531.441828,106 531.8,106.358172 531.8,106.8 C531.8,107.241828 531.441828,107.6 531,107.6 Z M531,101.2 L527.8,101.2 C527.358172,101.2 527,100.841828 527,100.4 C527,99.9581722 527.358172,99.6 527.8,99.6 L531,99.6 C531.441828,99.6 531.8,99.9581722 531.8,100.4 C531.8,100.841828 531.441828,101.2 531,101.2 Z M531,94.8 L527.8,94.8 C527.358172,94.8 527,94.4418278 527,94 C527,93.5581722 527.358172,93.2 527.8,93.2 L531,93.2 C531.441828,93.2 531.8,93.5581722 531.8,94 C531.8,94.4418278 531.441828,94.8 531,94.8 Z M523.24,112.72 L525.4,115.6 L504.6,115.6 L506.76,112.72 C506.91143,112.518971 507.148319,112.400526 507.4,112.4 L522.6,112.4 C522.851681,112.400526 523.08857,112.518971 523.24,112.72 Z" id="Shape" fill="#1FDB84" fill-rule="nonzero"></path>
            </g>
        </g>
    </g>
</svg>